# xmcd
#
# Track frame offsets:
# 150
# 20163
# 34354
# 50002
# 57664
# 71897
# 88526
# 107478
# 124324
# 135703
# 146993
# 165155
# 173369
# 191342
#
# Disc length: 2788 seconds
#
# Revision: 0
# Processed by: cddbd v1.4PL0 Copyright (c) Steve Scherf et al.
# Submitted via: Audion 3.0.2 (http://www.panic.com/audion/)
#
DISCID=cc0ae20e
DTITLE=Tom Waits - Alice
DYEAR=1900
DGENRE=
TTITLE0=Alice
TTITLE1=Everything You Can Think
TTITLE2=Flower's Grave
TTITLE3=No One Knows I'm Gone
TTITLE4=Kommienezuspadt
TTITLE5=Poor Edward
TTITLE6=Table Top Joe
TTITLE7=lost In The Harbour
TTITLE8=We're All Mad Here
TTITLE9=Watch Her Disappear
TTITLE10=Reeperbahn
TTITLE11=I'm Still Here
TTITLE12=Fish Amp Bird
TTITLE13=Barcarolle
EXTD=
EXTT0=
EXTT1=
EXTT2=
EXTT3=
EXTT4=
EXTT5=
EXTT6=
EXTT7=
EXTT8=
EXTT9=
EXTT10=
EXTT11=
EXTT12=
EXTT13=
PLAYORDER=
